<?xml version="1.0" encoding="UTF-8"?>
<svg xmlns="http://www.w3.org/2000/svg" xmlns:xlink="http://www.w3.org/1999/xlink" width="854" height="480" viewBox="0 0 854 480">
<defs>
<g>
<g id="glyph-0-0">
<path d="M 5.128906 0 L 3.976562 0 L 1.894531 -3.175781 C 1.773438 -3.363281 1.6875 -3.503906 1.640625 -3.597656 L 1.625 -3.597656 C 1.644531 -3.417969 1.652344 -3.144531 1.652344 -2.777344 L 1.652344 0 L 0.578125 0 L 0.578125 -5.058594 L 1.804688 -5.058594 L 3.8125 -1.976562 C 3.902344 -1.839844 3.988281 -1.703125 4.066406 -1.566406 L 4.082031 -1.566406 C 4.0625 -1.683594 4.050781 -1.914062 4.050781 -2.261719 L 4.050781 -5.058594 L 5.128906 -5.058594 Z "/>
</g>
<g id="glyph-0-1">
<path d="M 2.191406 0.0898438 C 1.589844 0.0898438 1.113281 -0.0820312 0.769531 -0.417969 C 0.425781 -0.753906 0.253906 -1.214844 0.253906 -1.792969 C 0.253906 -2.390625 0.433594 -2.855469 0.789062 -3.195312 C 1.148438 -3.53125 1.628906 -3.699219 2.238281 -3.699219 C 2.839844 -3.699219 3.308594 -3.53125 3.648438 -3.195312 C 3.992188 -2.855469 4.160156 -2.410156 4.160156 -1.855469 C 4.160156 -1.253906 3.984375 -0.78125 3.632812 -0.433594 C 3.28125 -0.0859375 2.800781 0.0898438 2.191406 0.0898438 M 2.21875 -2.847656 C 1.953125 -2.847656 1.75 -2.753906 1.605469 -2.574219 C 1.457031 -2.394531 1.386719 -2.136719 1.386719 -1.804688 C 1.386719 -1.113281 1.664062 -0.765625 2.226562 -0.765625 C 2.757812 -0.765625 3.027344 -1.121094 3.027344 -1.832031 C 3.027344 -2.507812 2.757812 -2.847656 2.21875 -2.847656 Z "/>
</g>
<g id="glyph-0-2">
</g>
<g id="glyph-0-3">
<path d="M 5.699219 -3.609375 L 4.660156 0 L 3.488281 0 L 2.957031 -2.117188 C 2.921875 -2.257812 2.898438 -2.410156 2.894531 -2.578125 L 2.875 -2.578125 C 2.859375 -2.394531 2.835938 -2.246094 2.804688 -2.128906 L 2.230469 0 L 1.074219 0 L 0.0546875 -3.609375 L 1.191406 -3.609375 L 1.6875 -1.253906 C 1.710938 -1.144531 1.730469 -1.011719 1.742188 -0.851562 L 1.761719 -0.851562 C 1.773438 -1.019531 1.796875 -1.15625 1.828125 -1.269531 L 2.449219 -3.609375 L 3.507812 -3.609375 L 4.066406 -1.253906 C 4.082031 -1.195312 4.097656 -1.058594 4.117188 -0.847656 L 4.140625 -0.847656 C 4.152344 -0.984375 4.171875 -1.117188 4.195312 -1.253906 L 4.664062 -3.609375 Z "/>
</g>
<g id="glyph-0-4">
<path d="M 3.714844 -1.488281 L 1.359375 -1.488281 C 1.394531 -0.964844 1.726562 -0.703125 2.347656 -0.703125 C 2.746094 -0.703125 3.09375 -0.796875 3.394531 -0.984375 L 3.394531 -0.179688 C 3.0625 0 2.628906 0.0898438 2.09375 0.0898438 C 1.511719 0.0898438 1.058594 -0.0742188 0.738281 -0.398438 C 0.414062 -0.71875 0.253906 -1.171875 0.253906 -1.75 C 0.253906 -2.347656 0.429688 -2.824219 0.777344 -3.175781 C 1.125 -3.523438 1.550781 -3.699219 2.058594 -3.699219 C 2.585938 -3.699219 2.992188 -3.542969 3.28125 -3.230469 C 3.570312 -2.917969 3.714844 -2.492188 3.714844 -1.957031 L 3.714844 -1.488281 M 2.679688 -2.171875 C 2.679688 -2.691406 2.472656 -2.949219 2.050781 -2.949219 C 1.875 -2.949219 1.71875 -2.875 1.589844 -2.726562 C 1.457031 -2.578125 1.378906 -2.394531 1.351562 -2.171875 Z "/>
</g>
<g id="glyph-0-5">
<path d="M 1.035156 -4.183594 C 0.84375 -4.183594 0.691406 -4.238281 0.570312 -4.351562 C 0.453125 -4.460938 0.390625 -4.597656 0.390625 -4.761719 C 0.390625 -4.929688 0.453125 -5.0625 0.570312 -5.171875 C 0.691406 -5.277344 0.84375 -5.328125 1.035156 -5.328125 C 1.222656 -5.328125 1.378906 -5.277344 1.496094 -5.171875 C 1.617188 -5.0625 1.675781 -4.929688 1.675781 -4.761719 C 1.675781 -4.589844 1.617188 -4.453125 1.496094 -4.34375 C 1.378906 -4.238281 1.222656 -4.183594 1.035156 -4.183594 M 1.582031 0 L 0.46875 0 L 0.46875 -3.609375 L 1.582031 -3.609375 Z "/>
</g>
<g id="glyph-0-6">
<path d="M 4.011719 -0.414062 C 4.011719 0.257812 3.816406 0.777344 3.429688 1.144531 C 3.039062 1.511719 2.476562 1.695312 1.742188 1.695312 C 1.253906 1.695312 0.871094 1.628906 0.585938 1.488281 L 0.585938 0.550781 C 0.957031 0.765625 1.332031 0.875 1.710938 0.875 C 2.085938 0.875 2.378906 0.773438 2.585938 0.578125 C 2.792969 0.378906 2.894531 0.109375 2.894531 -0.234375 L 2.894531 -0.519531 L 2.882812 -0.519531 C 2.628906 -0.113281 2.253906 0.0898438 1.757812 0.0898438 C 1.296875 0.0898438 0.929688 -0.0742188 0.660156 -0.398438 C 0.390625 -0.722656 0.253906 -1.15625 0.253906 -1.703125 C 0.253906 -2.316406 0.40625 -2.800781 0.707031 -3.160156 C 1.007812 -3.519531 1.402344 -3.699219 1.894531 -3.699219 C 2.332031 -3.699219 2.664062 -3.53125 2.882812 -3.191406 L 2.894531 -3.191406 L 2.894531 -3.609375 L 4.011719 -3.609375 L 4.011719 -0.414062 M 2.910156 -1.734375 L 2.910156 -2.019531 C 2.910156 -2.25 2.84375 -2.445312 2.707031 -2.605469 C 2.570312 -2.765625 2.394531 -2.847656 2.179688 -2.847656 C 1.933594 -2.847656 1.738281 -2.75 1.597656 -2.558594 C 1.457031 -2.363281 1.386719 -2.09375 1.386719 -1.742188 C 1.386719 -1.441406 1.453125 -1.203125 1.585938 -1.027344 C 1.722656 -0.851562 1.90625 -0.765625 2.136719 -0.765625 C 2.367188 -0.765625 2.554688 -0.855469 2.695312 -1.03125 C 2.839844 -1.210938 2.910156 -1.445312 2.910156 -1.734375 Z "/>
</g>
<g id="glyph-0-7">
<path d="M 3.9375 0 L 2.824219 0 L 2.824219 -2.050781 C 2.824219 -2.582031 2.632812 -2.847656 2.246094 -2.847656 C 2.050781 -2.847656 1.890625 -2.773438 1.765625 -2.625 C 1.644531 -2.476562 1.582031 -2.289062 1.582031 -2.058594 L 1.582031 0 L 0.46875 0 L 0.46875 -5.347656 L 1.582031 -5.347656 L 1.582031 -3.074219 L 1.597656 -3.074219 C 1.871094 -3.492188 2.242188 -3.699219 2.707031 -3.699219 C 3.527344 -3.699219 3.9375 -3.207031 3.9375 -2.21875 Z "/>
</g>
<g id="glyph-0-8">
<path d="M 2.652344 -0.0429688 C 2.488281 0.0429688 2.238281 0.0898438 1.90625 0.0898438 C 1.121094 0.0898438 0.730469 -0.320312 0.730469 -1.136719 L 0.730469 -2.789062 L 0.144531 -2.789062 L 0.144531 -3.609375 L 0.730469 -3.609375 L 0.730469 -4.390625 L 1.839844 -4.707031 L 1.839844 -3.609375 L 2.652344 -3.609375 L 2.652344 -2.789062 L 1.839844 -2.789062 L 1.839844 -1.328125 C 1.839844 -0.953125 1.988281 -0.765625 2.289062 -0.765625 C 2.40625 -0.765625 2.527344 -0.800781 2.652344 -0.867188 Z "/>
</g>
<g id="glyph-0-9">
<path d="M 2.824219 -4.492188 C 2.679688 -4.550781 2.542969 -4.578125 2.414062 -4.578125 C 2.054688 -4.578125 1.875 -4.382812 1.875 -3.996094 L 1.875 -3.609375 L 2.703125 -3.609375 L 2.703125 -2.789062 L 1.875 -2.789062 L 1.875 0 L 0.765625 0 L 0.765625 -2.789062 L 0.160156 -2.789062 L 0.160156 -3.609375 L 0.765625 -3.609375 L 0.765625 -4.058594 C 0.765625 -4.46875 0.898438 -4.800781 1.167969 -5.054688 C 1.433594 -5.304688 1.800781 -5.429688 2.261719 -5.429688 C 2.484375 -5.429688 2.675781 -5.40625 2.824219 -5.359375 Z "/>
</g>
<g id="glyph-0-10">
<path d="M 3.957031 0 L 2.847656 0 L 2.847656 -2.007812 C 2.847656 -2.566406 2.644531 -2.847656 2.246094 -2.847656 C 2.054688 -2.847656 1.894531 -2.773438 1.769531 -2.625 C 1.644531 -2.476562 1.582031 -2.289062 1.582031 -2.058594 L 1.582031 0 L 0.46875 0 L 0.46875 -3.609375 L 1.582031 -3.609375 L 1.582031 -3.039062 L 1.597656 -3.039062 C 1.863281 -3.480469 2.25 -3.699219 2.757812 -3.699219 C 3.558594 -3.699219 3.957031 -3.203125 3.957031 -2.210938 Z "/>
</g>
<g id="glyph-0-11">
<path d="M 2.433594 -1.539062 L 0.503906 -1.539062 L 0.503906 -2.316406 L 2.433594 -2.316406 Z "/>
</g>
<g id="glyph-0-12">
<path d="M 3.902344 0 L 2.789062 0 L 2.789062 -0.550781 L 2.773438 -0.550781 C 2.496094 -0.125 2.128906 0.0898438 1.667969 0.0898438 C 0.832031 0.0898438 0.414062 -0.417969 0.414062 -1.433594 L 0.414062 -3.609375 L 1.523438 -3.609375 L 1.523438 -1.53125 C 1.523438 -1.019531 1.726562 -0.765625 2.128906 -0.765625 C 2.328125 -0.765625 2.488281 -0.835938 2.609375 -0.976562 C 2.730469 -1.113281 2.789062 -1.304688 2.789062 -1.542969 L 2.789062 -3.609375 L 3.902344 -3.609375 Z "/>
</g>
<g id="glyph-0-13">
<path d="M 0.964844 0.0898438 C 0.78125 0.0898438 0.628906 0.03125 0.507812 -0.0820312 C 0.386719 -0.195312 0.324219 -0.332031 0.324219 -0.496094 C 0.324219 -0.667969 0.386719 -0.804688 0.511719 -0.914062 C 0.640625 -1.023438 0.796875 -1.074219 0.984375 -1.074219 C 1.175781 -1.074219 1.332031 -1.019531 1.453125 -0.910156 C 1.574219 -0.800781 1.632812 -0.664062 1.632812 -0.496094 C 1.632812 -0.324219 1.570312 -0.183594 1.449219 -0.0742188 C 1.324219 0.0351562 1.164062 0.0898438 0.964844 0.0898438 Z "/>
</g>
<g id="glyph-0-14">
<path d="M 4.730469 -0.339844 C 4.234375 -0.0546875 3.621094 0.0898438 2.886719 0.0898438 C 2.074219 0.0898438 1.433594 -0.136719 0.964844 -0.585938 C 0.496094 -1.039062 0.261719 -1.65625 0.261719 -2.449219 C 0.261719 -3.242188 0.515625 -3.890625 1.03125 -4.390625 C 1.542969 -4.890625 2.222656 -5.140625 3.074219 -5.140625 C 3.609375 -5.140625 4.082031 -5.066406 4.492188 -4.917969 L 4.492188 -3.851562 C 4.101562 -4.078125 3.625 -4.191406 3.0625 -4.191406 C 2.589844 -4.191406 2.203125 -4.035156 1.90625 -3.730469 C 1.609375 -3.421875 1.460938 -3.011719 1.460938 -2.5 C 1.460938 -1.980469 1.59375 -1.578125 1.859375 -1.292969 C 2.128906 -1.011719 2.488281 -0.867188 2.941406 -0.867188 C 3.214844 -0.867188 3.429688 -0.90625 3.589844 -0.984375 L 3.589844 -1.972656 L 2.578125 -1.972656 L 2.578125 -2.882812 L 4.730469 -2.882812 Z "/>
</g>
<g id="glyph-0-15">
<path d="M 1.71875 -1.742188 L 1.71875 0 L 0.578125 0 L 0.578125 -5.058594 L 2.363281 -5.058594 C 3.636719 -5.058594 4.273438 -4.519531 4.273438 -3.445312 C 4.273438 -2.9375 4.089844 -2.527344 3.726562 -2.214844 C 3.359375 -1.898438 2.871094 -1.742188 2.261719 -1.742188 L 1.71875 -1.742188 M 1.71875 -4.183594 L 1.71875 -2.605469 L 2.164062 -2.605469 C 2.773438 -2.605469 3.074219 -2.871094 3.074219 -3.402344 C 3.074219 -3.921875 2.773438 -4.183594 2.164062 -4.183594 Z "/>
</g>
<g id="glyph-0-16">
<path d="M 4.699219 -2.191406 C 4.699219 -0.671875 3.992188 0.0898438 2.578125 0.0898438 C 1.203125 0.0898438 0.519531 -0.652344 0.519531 -2.136719 L 0.519531 -5.058594 L 1.660156 -5.058594 L 1.660156 -2.125 C 1.660156 -1.304688 1.980469 -0.894531 2.621094 -0.894531 C 3.25 -0.894531 3.5625 -1.289062 3.5625 -2.082031 L 3.5625 -5.058594 L 4.699219 -5.058594 Z "/>
</g>
<g id="glyph-0-17">
<path d="M 0.234375 -0.09375 L 0.234375 -1 C 0.417969 -0.886719 0.597656 -0.804688 0.78125 -0.75 C 0.964844 -0.695312 1.136719 -0.671875 1.296875 -0.671875 C 1.496094 -0.671875 1.652344 -0.695312 1.765625 -0.75 C 1.878906 -0.804688 1.9375 -0.886719 1.9375 -1 C 1.9375 -1.070312 1.910156 -1.128906 1.859375 -1.175781 C 1.808594 -1.222656 1.742188 -1.261719 1.660156 -1.296875 C 1.578125 -1.332031 1.488281 -1.363281 1.394531 -1.394531 C 1.296875 -1.421875 1.203125 -1.453125 1.113281 -1.488281 C 0.972656 -1.542969 0.84375 -1.601562 0.734375 -1.664062 C 0.625 -1.726562 0.535156 -1.796875 0.460938 -1.878906 C 0.386719 -1.960938 0.328125 -2.058594 0.289062 -2.164062 C 0.253906 -2.273438 0.234375 -2.402344 0.234375 -2.550781 C 0.234375 -2.753906 0.277344 -2.925781 0.363281 -3.070312 C 0.453125 -3.21875 0.570312 -3.335938 0.71875 -3.429688 C 0.863281 -3.523438 1.03125 -3.589844 1.222656 -3.632812 C 1.410156 -3.679688 1.609375 -3.699219 1.8125 -3.699219 C 1.972656 -3.699219 2.136719 -3.6875 2.300781 -3.664062 C 2.464844 -3.636719 2.625 -3.601562 2.785156 -3.554688 L 2.785156 -2.695312 C 2.644531 -2.777344 2.492188 -2.839844 2.332031 -2.878906 C 2.171875 -2.921875 2.015625 -2.941406 1.859375 -2.941406 C 1.785156 -2.941406 1.71875 -2.933594 1.652344 -2.921875 C 1.585938 -2.910156 1.53125 -2.890625 1.480469 -2.867188 C 1.433594 -2.839844 1.394531 -2.808594 1.363281 -2.769531 C 1.335938 -2.730469 1.324219 -2.6875 1.324219 -2.636719 C 1.324219 -2.570312 1.34375 -2.515625 1.386719 -2.46875 C 1.429688 -2.421875 1.484375 -2.382812 1.550781 -2.347656 C 1.621094 -2.3125 1.695312 -2.28125 1.777344 -2.253906 C 1.863281 -2.226562 1.945312 -2.199219 2.027344 -2.171875 C 2.175781 -2.121094 2.308594 -2.0625 2.429688 -2.003906 C 2.550781 -1.941406 2.652344 -1.871094 2.738281 -1.789062 C 2.824219 -1.707031 2.890625 -1.609375 2.9375 -1.5 C 2.980469 -1.386719 3.003906 -1.257812 3.003906 -1.105469 C 3.003906 -0.890625 2.957031 -0.707031 2.867188 -0.554688 C 2.773438 -0.402344 2.648438 -0.28125 2.496094 -0.183594 C 2.339844 -0.0898438 2.164062 -0.0195312 1.960938 0.0234375 C 1.761719 0.0664062 1.554688 0.0898438 1.335938 0.0898438 C 0.9375 0.0898438 0.570312 0.0273438 0.234375 -0.09375 Z "/>
</g>
<g id="glyph-0-18">
<path d="M 2.6875 -2.007812 C 2.6875 -1.328125 2.53125 -0.8125 2.214844 -0.453125 C 1.902344 -0.0898438 1.449219 0.0898438 0.851562 0.0898438 C 0.585938 0.0898438 0.34375 0.0429688 0.117188 -0.0507812 L 0.117188 -1.117188 C 0.3125 -0.96875 0.53125 -0.894531 0.773438 -0.894531 C 1.292969 -0.894531 1.550781 -1.28125 1.550781 -2.050781 L 1.550781 -5.058594 L 2.6875 -5.058594 Z "/>
</g>
<g id="glyph-0-19">
<path d="M 3.90625 -3.609375 L 2.441406 0.289062 C 2.085938 1.226562 1.554688 1.695312 0.847656 1.695312 C 0.574219 1.695312 0.355469 1.664062 0.179688 1.605469 L 0.179688 0.714844 C 0.328125 0.804688 0.488281 0.847656 0.664062 0.847656 C 0.949219 0.847656 1.148438 0.710938 1.261719 0.441406 L 1.453125 -0.0078125 L -0.015625 -3.609375 L 1.21875 -3.609375 L 1.894531 -1.414062 C 1.9375 -1.277344 1.96875 -1.117188 1.992188 -0.929688 L 2.007812 -0.929688 C 2.027344 -1.066406 2.066406 -1.226562 2.125 -1.40625 L 2.804688 -3.609375 Z "/>
</g>
<g id="glyph-0-20">
<path d="M 4.203125 -0.179688 C 3.835938 0 3.351562 0.0898438 2.757812 0.0898438 C 1.980469 0.0898438 1.371094 -0.140625 0.925781 -0.597656 C 0.484375 -1.050781 0.261719 -1.660156 0.261719 -2.417969 C 0.261719 -3.226562 0.511719 -3.882812 1.011719 -4.386719 C 1.511719 -4.890625 2.160156 -5.140625 2.957031 -5.140625 C 3.449219 -5.140625 3.867188 -5.078125 4.203125 -4.953125 L 4.203125 -3.859375 C 3.867188 -4.058594 3.480469 -4.160156 3.046875 -4.160156 C 2.570312 -4.160156 2.1875 -4.011719 1.898438 -3.714844 C 1.605469 -3.414062 1.460938 -3.011719 1.460938 -2.5 C 1.460938 -2.011719 1.597656 -1.621094 1.871094 -1.332031 C 2.148438 -1.039062 2.519531 -0.894531 2.984375 -0.894531 C 3.429688 -0.894531 3.835938 -1.003906 4.203125 -1.21875 Z "/>
</g>
<g id="glyph-0-21">
<path d="M 2.824219 -2.605469 C 2.691406 -2.679688 2.535156 -2.714844 2.355469 -2.714844 C 2.113281 -2.714844 1.925781 -2.625 1.789062 -2.449219 C 1.652344 -2.273438 1.582031 -2.03125 1.582031 -1.722656 L 1.582031 0 L 0.46875 0 L 0.46875 -3.609375 L 1.582031 -3.609375 L 1.582031 -2.941406 L 1.597656 -2.941406 C 1.773438 -3.429688 2.089844 -3.675781 2.550781 -3.675781 C 2.667969 -3.675781 2.757812 -3.660156 2.824219 -3.632812 Z "/>
</g>
<g id="glyph-0-22">
<path d="M 3.472656 0 L 2.417969 0 L 2.417969 -0.519531 L 2.40625 -0.519531 C 2.164062 -0.113281 1.804688 0.0898438 1.328125 0.0898438 C 0.980469 0.0898438 0.703125 -0.0117188 0.503906 -0.210938 C 0.300781 -0.410156 0.199219 -0.671875 0.199219 -1.003906 C 0.199219 -1.707031 0.617188 -2.109375 1.445312 -2.21875 L 2.425781 -2.347656 C 2.425781 -2.742188 2.210938 -2.941406 1.785156 -2.941406 C 1.355469 -2.941406 0.945312 -2.8125 0.558594 -2.558594 L 0.558594 -3.394531 C 0.710938 -3.476562 0.925781 -3.546875 1.195312 -3.609375 C 1.464844 -3.667969 1.707031 -3.699219 1.929688 -3.699219 C 2.957031 -3.699219 3.472656 -3.1875 3.472656 -2.160156 L 3.472656 0 M 2.425781 -1.46875 L 2.425781 -1.710938 L 1.769531 -1.625 C 1.410156 -1.578125 1.226562 -1.414062 1.226562 -1.136719 C 1.226562 -1.007812 1.269531 -0.90625 1.359375 -0.824219 C 1.449219 -0.742188 1.566406 -0.703125 1.71875 -0.703125 C 1.925781 -0.703125 2.097656 -0.773438 2.230469 -0.917969 C 2.359375 -1.0625 2.425781 -1.246094 2.425781 -1.46875 Z "/>
</g>
<g id="glyph-0-23">
<path d="M 4.003906 0 L 2.886719 0 L 2.886719 -0.496094 L 2.875 -0.496094 C 2.621094 -0.105469 2.246094 0.0898438 1.757812 0.0898438 C 1.304688 0.0898438 0.941406 -0.0703125 0.667969 -0.390625 C 0.390625 -0.707031 0.253906 -1.152344 0.253906 -1.722656 C 0.253906 -2.320312 0.40625 -2.800781 0.707031 -3.160156 C 1.011719 -3.519531 1.410156 -3.699219 1.902344 -3.699219 C 2.367188 -3.699219 2.691406 -3.53125 2.875 -3.199219 L 2.886719 -3.199219 L 2.886719 -5.347656 L 4.003906 -5.347656 L 4.003906 0 M 2.910156 -1.757812 L 2.910156 -2.027344 C 2.910156 -2.261719 2.839844 -2.457031 2.703125 -2.613281 C 2.570312 -2.769531 2.390625 -2.847656 2.171875 -2.847656 C 1.925781 -2.847656 1.734375 -2.75 1.59375 -2.554688 C 1.457031 -2.359375 1.386719 -2.09375 1.386719 -1.757812 C 1.386719 -1.4375 1.453125 -1.195312 1.585938 -1.023438 C 1.722656 -0.851562 1.90625 -0.765625 2.144531 -0.765625 C 2.371094 -0.765625 2.554688 -0.855469 2.695312 -1.035156 C 2.839844 -1.21875 2.910156 -1.457031 2.910156 -1.757812 Z "/>
</g>
<g id="glyph-0-24">
<path d="M 1.597656 -0.417969 L 1.582031 -0.417969 L 1.582031 1.660156 L 0.46875 1.660156 L 0.46875 -3.609375 L 1.582031 -3.609375 L 1.582031 -3.066406 L 1.597656 -3.066406 C 1.871094 -3.488281 2.257812 -3.699219 2.757812 -3.699219 C 3.226562 -3.699219 3.585938 -3.539062 3.84375 -3.21875 C 4.097656 -2.898438 4.226562 -2.460938 4.226562 -1.90625 C 4.226562 -1.304688 4.078125 -0.824219 3.777344 -0.457031 C 3.480469 -0.09375 3.085938 0.0898438 2.59375 0.0898438 C 2.15625 0.0898438 1.824219 -0.0820312 1.597656 -0.417969 M 1.566406 -1.902344 L 1.566406 -1.613281 C 1.566406 -1.363281 1.632812 -1.160156 1.761719 -1 C 1.894531 -0.84375 2.066406 -0.765625 2.28125 -0.765625 C 2.535156 -0.765625 2.734375 -0.863281 2.871094 -1.058594 C 3.011719 -1.257812 3.082031 -1.535156 3.082031 -1.894531 C 3.082031 -2.527344 2.835938 -2.847656 2.339844 -2.847656 C 2.113281 -2.847656 1.925781 -2.757812 1.78125 -2.585938 C 1.636719 -2.414062 1.566406 -2.183594 1.566406 -1.902344 Z "/>
</g>
</g>
</defs>
<g fill="rgb(100%, 100%, 100%)" fill-opacity="1">
<use xlink:href="#glyph-0-0" x="30" y="27.793945"/>
<use xlink:href="#glyph-0-1" x="36" y="27.793945"/>
<use xlink:href="#glyph-0-2" x="40" y="27.793945"/>
<use xlink:href="#glyph-0-3" x="42" y="27.793945"/>
<use xlink:href="#glyph-0-4" x="48" y="27.793945"/>
<use xlink:href="#glyph-0-5" x="52" y="27.793945"/>
<use xlink:href="#glyph-0-6" x="54" y="27.793945"/>
<use xlink:href="#glyph-0-7" x="58" y="27.793945"/>
<use xlink:href="#glyph-0-8" x="62" y="27.793945"/>
<use xlink:href="#glyph-0-2" x="65" y="27.793945"/>
<use xlink:href="#glyph-0-9" x="67" y="27.793945"/>
<use xlink:href="#glyph-0-5" x="70" y="27.793945"/>
<use xlink:href="#glyph-0-10" x="72" y="27.793945"/>
<use xlink:href="#glyph-0-4" x="76" y="27.793945"/>
<use xlink:href="#glyph-0-11" x="80" y="27.793945"/>
<use xlink:href="#glyph-0-8" x="83" y="27.793945"/>
<use xlink:href="#glyph-0-12" x="86" y="27.793945"/>
<use xlink:href="#glyph-0-10" x="90" y="27.793945"/>
<use xlink:href="#glyph-0-5" x="94" y="27.793945"/>
<use xlink:href="#glyph-0-10" x="96" y="27.793945"/>
<use xlink:href="#glyph-0-6" x="100" y="27.793945"/>
<use xlink:href="#glyph-0-13" x="104" y="27.793945"/>
<use xlink:href="#glyph-0-2" x="106" y="27.793945"/>
<use xlink:href="#glyph-0-2" x="108" y="27.793945"/>
<use xlink:href="#glyph-0-0" x="110" y="27.793945"/>
<use xlink:href="#glyph-0-1" x="116" y="27.793945"/>
<use xlink:href="#glyph-0-2" x="120" y="27.793945"/>
<use xlink:href="#glyph-0-14" x="122" y="27.793945"/>
<use xlink:href="#glyph-0-15" x="127" y="27.793945"/>
<use xlink:href="#glyph-0-16" x="131" y="27.793945"/>
<use xlink:href="#glyph-0-17" x="136" y="27.793945"/>
<use xlink:href="#glyph-0-13" x="139" y="27.793945"/>
<use xlink:href="#glyph-0-2" x="141" y="27.793945"/>
<use xlink:href="#glyph-0-2" x="143" y="27.793945"/>
<use xlink:href="#glyph-0-18" x="145" y="27.793945"/>
<use xlink:href="#glyph-0-12" x="148" y="27.793945"/>
<use xlink:href="#glyph-0-17" x="152" y="27.793945"/>
<use xlink:href="#glyph-0-8" x="155" y="27.793945"/>
<use xlink:href="#glyph-0-2" x="158" y="27.793945"/>
<use xlink:href="#glyph-0-8" x="160" y="27.793945"/>
<use xlink:href="#glyph-0-5" x="163" y="27.793945"/>
<use xlink:href="#glyph-0-10" x="165" y="27.793945"/>
<use xlink:href="#glyph-0-19" x="169" y="27.793945"/>
<use xlink:href="#glyph-0-2" x="173" y="27.793945"/>
<use xlink:href="#glyph-0-20" x="175" y="27.793945"/>
<use xlink:href="#glyph-0-15" x="180" y="27.793945"/>
<use xlink:href="#glyph-0-16" x="184" y="27.793945"/>
<use xlink:href="#glyph-0-2" x="189" y="27.793945"/>
<use xlink:href="#glyph-0-6" x="191" y="27.793945"/>
<use xlink:href="#glyph-0-21" x="195" y="27.793945"/>
<use xlink:href="#glyph-0-22" x="198" y="27.793945"/>
<use xlink:href="#glyph-0-23" x="202" y="27.793945"/>
<use xlink:href="#glyph-0-5" x="206" y="27.793945"/>
<use xlink:href="#glyph-0-4" x="208" y="27.793945"/>
<use xlink:href="#glyph-0-10" x="212" y="27.793945"/>
<use xlink:href="#glyph-0-8" x="216" y="27.793945"/>
<use xlink:href="#glyph-0-2" x="219" y="27.793945"/>
<use xlink:href="#glyph-0-17" x="221" y="27.793945"/>
<use xlink:href="#glyph-0-8" x="224" y="27.793945"/>
<use xlink:href="#glyph-0-4" x="227" y="27.793945"/>
<use xlink:href="#glyph-0-24" x="231" y="27.793945"/>
<use xlink:href="#glyph-0-17" x="235" y="27.793945"/>
<use xlink:href="#glyph-0-13" x="238" y="27.793945"/>
</g>
</svg>
