<?xml version="1.0" encoding="UTF-8"?>
<svg xmlns="http://www.w3.org/2000/svg" xmlns:xlink="http://www.w3.org/1999/xlink" width="854" height="480" viewBox="0 0 854 480">
<defs>
<g>
<g id="glyph-0-0">
<path d="M 0.214844 -0.0859375 L 0.214844 -0.921875 C 0.382812 -0.820312 0.554688 -0.742188 0.722656 -0.691406 C 0.890625 -0.644531 1.046875 -0.617188 1.199219 -0.617188 C 1.378906 -0.617188 1.523438 -0.644531 1.628906 -0.691406 C 1.734375 -0.742188 1.785156 -0.820312 1.785156 -0.921875 C 1.785156 -0.984375 1.761719 -1.039062 1.714844 -1.085938 C 1.667969 -1.128906 1.605469 -1.164062 1.53125 -1.199219 C 1.457031 -1.230469 1.375 -1.257812 1.285156 -1.285156 C 1.195312 -1.3125 1.109375 -1.339844 1.027344 -1.375 C 0.894531 -1.421875 0.78125 -1.476562 0.679688 -1.535156 C 0.578125 -1.59375 0.492188 -1.660156 0.425781 -1.734375 C 0.355469 -1.8125 0.304688 -1.898438 0.269531 -2 C 0.234375 -2.097656 0.214844 -2.21875 0.214844 -2.351562 C 0.214844 -2.539062 0.253906 -2.699219 0.335938 -2.835938 C 0.417969 -2.96875 0.527344 -3.078125 0.664062 -3.164062 C 0.796875 -3.25 0.953125 -3.3125 1.128906 -3.355469 C 1.300781 -3.394531 1.484375 -3.414062 1.671875 -3.414062 C 1.820312 -3.414062 1.96875 -3.402344 2.121094 -3.378906 C 2.273438 -3.359375 2.425781 -3.324219 2.570312 -3.28125 L 2.570312 -2.488281 C 2.441406 -2.5625 2.300781 -2.621094 2.152344 -2.65625 C 2.003906 -2.695312 1.859375 -2.714844 1.714844 -2.714844 C 1.648438 -2.714844 1.585938 -2.707031 1.523438 -2.695312 C 1.464844 -2.683594 1.414062 -2.667969 1.367188 -2.644531 C 1.320312 -2.621094 1.285156 -2.59375 1.257812 -2.558594 C 1.234375 -2.519531 1.21875 -2.480469 1.21875 -2.433594 C 1.21875 -2.375 1.242188 -2.320312 1.277344 -2.277344 C 1.316406 -2.234375 1.371094 -2.199219 1.433594 -2.167969 C 1.496094 -2.136719 1.566406 -2.105469 1.640625 -2.082031 C 1.71875 -2.058594 1.796875 -2.03125 1.871094 -2.003906 C 2.007812 -1.957031 2.132812 -1.90625 2.242188 -1.847656 C 2.351562 -1.792969 2.449219 -1.726562 2.527344 -1.648438 C 2.605469 -1.574219 2.667969 -1.484375 2.710938 -1.382812 C 2.753906 -1.28125 2.773438 -1.160156 2.773438 -1.019531 C 2.773438 -0.820312 2.730469 -0.652344 2.644531 -0.511719 C 2.558594 -0.371094 2.445312 -0.257812 2.304688 -0.171875 C 2.160156 -0.0820312 1.996094 -0.0195312 1.8125 0.0195312 C 1.625 0.0625 1.433594 0.0820312 1.234375 0.0820312 C 0.867188 0.0820312 0.527344 0.0234375 0.214844 -0.0859375 Z "/>
</g>
<g id="glyph-0-1">
<path d="M 2.023438 0.0820312 C 1.464844 0.0820312 1.027344 -0.0742188 0.710938 -0.386719 C 0.394531 -0.695312 0.234375 -1.121094 0.234375 -1.652344 C 0.234375 -2.203125 0.398438 -2.636719 0.730469 -2.949219 C 1.058594 -3.257812 1.503906 -3.414062 2.066406 -3.414062 C 2.621094 -3.414062 3.054688 -3.257812 3.367188 -2.949219 C 3.683594 -2.636719 3.839844 -2.222656 3.839844 -1.710938 C 3.839844 -1.160156 3.679688 -0.722656 3.355469 -0.398438 C 3.03125 -0.078125 2.585938 0.0820312 2.023438 0.0820312 M 2.046875 -2.625 C 1.804688 -2.625 1.617188 -2.542969 1.480469 -2.375 C 1.347656 -2.210938 1.277344 -1.972656 1.277344 -1.667969 C 1.277344 -1.027344 1.539062 -0.707031 2.054688 -0.707031 C 2.546875 -0.707031 2.792969 -1.035156 2.792969 -1.691406 C 2.792969 -2.316406 2.542969 -2.625 2.046875 -2.625 Z "/>
</g>
<g id="glyph-0-2">
<path d="M 2.605469 -4.148438 C 2.476562 -4.199219 2.347656 -4.226562 2.226562 -4.226562 C 1.898438 -4.226562 1.730469 -4.046875 1.730469 -3.6875 L 1.730469 -3.332031 L 2.492188 -3.332031 L 2.492188 -2.574219 L 1.730469 -2.574219 L 1.730469 0 L 0.707031 0 L 0.707031 -2.574219 L 0.148438 -2.574219 L 0.148438 -3.332031 L 0.707031 -3.332031 L 0.707031 -3.746094 C 0.707031 -4.125 0.828125 -4.433594 1.078125 -4.664062 C 1.324219 -4.898438 1.660156 -5.011719 2.085938 -5.011719 C 2.296875 -5.011719 2.46875 -4.992188 2.605469 -4.949219 Z "/>
</g>
<g id="glyph-0-3">
<path d="M 2.449219 -0.0390625 C 2.296875 0.0429688 2.066406 0.0820312 1.761719 0.0820312 C 1.035156 0.0820312 0.671875 -0.296875 0.671875 -1.046875 L 0.671875 -2.574219 L 0.132812 -2.574219 L 0.132812 -3.332031 L 0.671875 -3.332031 L 0.671875 -4.054688 L 1.699219 -4.34375 L 1.699219 -3.332031 L 2.449219 -3.332031 L 2.449219 -2.574219 L 1.699219 -2.574219 L 1.699219 -1.226562 C 1.699219 -0.878906 1.835938 -0.707031 2.113281 -0.707031 C 2.222656 -0.707031 2.332031 -0.738281 2.449219 -0.800781 Z "/>
</g>
<g id="glyph-0-4">
<path d="M 5.726562 0 L 4.699219 0 L 4.699219 -1.902344 C 4.699219 -2.386719 4.523438 -2.625 4.167969 -2.625 C 3.996094 -2.625 3.859375 -2.554688 3.753906 -2.410156 C 3.648438 -2.261719 3.59375 -2.082031 3.59375 -1.863281 L 3.59375 0 L 2.566406 0 L 2.566406 -1.921875 C 2.566406 -2.390625 2.390625 -2.625 2.039062 -2.625 C 1.863281 -2.625 1.726562 -2.558594 1.621094 -2.417969 C 1.515625 -2.28125 1.460938 -2.089844 1.460938 -1.851562 L 1.460938 0 L 0.433594 0 L 0.433594 -3.332031 L 1.460938 -3.332031 L 1.460938 -2.8125 L 1.472656 -2.8125 C 1.582031 -2.992188 1.730469 -3.136719 1.921875 -3.246094 C 2.113281 -3.359375 2.324219 -3.414062 2.550781 -3.414062 C 3.023438 -3.414062 3.34375 -3.207031 3.519531 -2.792969 C 3.773438 -3.207031 4.144531 -3.414062 4.640625 -3.414062 C 5.363281 -3.414062 5.726562 -2.96875 5.726562 -2.074219 Z "/>
</g>
<g id="glyph-0-5">
<path d="M 3.207031 0 L 2.234375 0 L 2.234375 -0.476562 L 2.21875 -0.476562 C 1.996094 -0.105469 1.664062 0.0820312 1.226562 0.0820312 C 0.902344 0.0820312 0.648438 -0.0117188 0.464844 -0.195312 C 0.277344 -0.378906 0.183594 -0.621094 0.183594 -0.925781 C 0.183594 -1.574219 0.570312 -1.949219 1.335938 -2.046875 L 2.238281 -2.167969 C 2.238281 -2.53125 2.042969 -2.714844 1.648438 -2.714844 C 1.25 -2.714844 0.871094 -2.597656 0.515625 -2.359375 L 0.515625 -3.132812 C 0.65625 -3.207031 0.851562 -3.273438 1.101562 -3.328125 C 1.351562 -3.386719 1.578125 -3.414062 1.78125 -3.414062 C 2.730469 -3.414062 3.207031 -2.941406 3.207031 -1.992188 L 3.207031 0 M 2.238281 -1.355469 L 2.238281 -1.578125 L 1.632812 -1.5 C 1.300781 -1.457031 1.132812 -1.304688 1.132812 -1.046875 C 1.132812 -0.929688 1.171875 -0.835938 1.253906 -0.761719 C 1.335938 -0.683594 1.445312 -0.648438 1.585938 -0.648438 C 1.777344 -0.648438 1.9375 -0.714844 2.058594 -0.847656 C 2.179688 -0.980469 2.238281 -1.148438 2.238281 -1.355469 Z "/>
</g>
<g id="glyph-0-6">
<path d="M 3.652344 -3.332031 L 2.550781 -1.71875 L 3.644531 0 L 2.460938 0 L 1.980469 -0.898438 C 1.941406 -0.96875 1.894531 -1.070312 1.839844 -1.203125 L 1.824219 -1.203125 C 1.792969 -1.109375 1.75 -1.011719 1.691406 -0.90625 L 1.207031 0 L 0.0273438 0 L 1.152344 -1.660156 L 0.09375 -3.332031 L 1.285156 -3.332031 L 1.761719 -2.398438 C 1.824219 -2.273438 1.867188 -2.171875 1.894531 -2.085938 L 1.90625 -2.085938 C 1.941406 -2.1875 1.988281 -2.296875 2.046875 -2.40625 L 2.53125 -3.332031 Z "/>
</g>
</g>
</defs>
<g fill="rgb(43.137255%, 90.588235%, 81.568627%)" fill-opacity="1">
<use xlink:href="#glyph-0-0" x="30" y="27.193359"/>
<use xlink:href="#glyph-0-1" x="33" y="27.193359"/>
<use xlink:href="#glyph-0-2" x="37" y="27.193359"/>
<use xlink:href="#glyph-0-3" x="40" y="27.193359"/>
<use xlink:href="#glyph-0-4" x="43" y="27.193359"/>
<use xlink:href="#glyph-0-5" x="49" y="27.193359"/>
<use xlink:href="#glyph-0-6" x="53" y="27.193359"/>
</g>
</svg>
