<?xml version="1.0" encoding="UTF-8"?>
<svg xmlns="http://www.w3.org/2000/svg" xmlns:xlink="http://www.w3.org/1999/xlink" width="854" height="480" viewBox="0 0 854 480">
<defs>
<g>
<g id="glyph-0-0">
<path d="M 3.867188 0 L 0.621094 0 L 0.621094 -5.445312 L 1.847656 -5.445312 L 1.847656 -0.996094 L 3.867188 -0.996094 Z "/>
</g>
<g id="glyph-0-1">
<path d="M 4 -1.601562 L 1.460938 -1.601562 C 1.503906 -1.039062 1.859375 -0.753906 2.527344 -0.753906 C 2.957031 -0.753906 3.332031 -0.855469 3.65625 -1.058594 L 3.65625 -0.195312 C 3.296875 0 2.832031 0.09375 2.253906 0.09375 C 1.628906 0.09375 1.140625 -0.078125 0.792969 -0.425781 C 0.445312 -0.773438 0.273438 -1.261719 0.273438 -1.882812 C 0.273438 -2.527344 0.460938 -3.039062 0.835938 -3.417969 C 1.210938 -3.796875 1.671875 -3.984375 2.21875 -3.984375 C 2.785156 -3.984375 3.222656 -3.816406 3.535156 -3.480469 C 3.84375 -3.140625 4 -2.683594 4 -2.109375 L 4 -1.601562 M 2.886719 -2.339844 C 2.886719 -2.894531 2.660156 -3.175781 2.210938 -3.175781 C 2.019531 -3.175781 1.851562 -3.09375 1.710938 -2.933594 C 1.570312 -2.777344 1.484375 -2.578125 1.453125 -2.339844 Z "/>
</g>
<g id="glyph-0-2">
<path d="M 3.742188 0 L 2.605469 0 L 2.605469 -0.558594 L 2.589844 -0.558594 C 2.328125 -0.121094 1.941406 0.09375 1.433594 0.09375 C 1.054688 0.09375 0.757812 -0.0117188 0.542969 -0.226562 C 0.324219 -0.441406 0.214844 -0.726562 0.214844 -1.082031 C 0.214844 -1.835938 0.664062 -2.273438 1.558594 -2.386719 L 2.613281 -2.527344 C 2.613281 -2.953125 2.382812 -3.167969 1.921875 -3.167969 C 1.457031 -3.167969 1.019531 -3.027344 0.601562 -2.753906 L 0.601562 -3.65625 C 0.765625 -3.742188 0.996094 -3.820312 1.285156 -3.886719 C 1.574219 -3.949219 1.839844 -3.984375 2.078125 -3.984375 C 3.1875 -3.984375 3.742188 -3.429688 3.742188 -2.324219 L 3.742188 0 M 2.613281 -1.578125 L 2.613281 -1.84375 L 1.90625 -1.75 C 1.515625 -1.699219 1.320312 -1.523438 1.320312 -1.222656 C 1.320312 -1.085938 1.367188 -0.972656 1.464844 -0.886719 C 1.558594 -0.800781 1.6875 -0.753906 1.847656 -0.753906 C 2.074219 -0.753906 2.257812 -0.832031 2.398438 -0.988281 C 2.542969 -1.144531 2.613281 -1.339844 2.613281 -1.578125 Z "/>
</g>
<g id="glyph-0-3">
<path d="M 3.042969 -2.804688 C 2.898438 -2.886719 2.730469 -2.925781 2.535156 -2.925781 C 2.277344 -2.925781 2.070312 -2.828125 1.925781 -2.636719 C 1.777344 -2.445312 1.707031 -2.1875 1.707031 -1.855469 L 1.707031 0 L 0.503906 0 L 0.503906 -3.890625 L 1.707031 -3.890625 L 1.707031 -3.167969 L 1.71875 -3.167969 C 1.910156 -3.695312 2.25 -3.957031 2.746094 -3.957031 C 2.871094 -3.957031 2.972656 -3.941406 3.042969 -3.910156 Z "/>
</g>
<g id="glyph-0-4">
<path d="M 4.261719 0 L 3.066406 0 L 3.066406 -2.160156 C 3.066406 -2.761719 2.847656 -3.066406 2.417969 -3.066406 C 2.210938 -3.066406 2.039062 -2.984375 1.90625 -2.824219 C 1.773438 -2.664062 1.707031 -2.464844 1.707031 -2.21875 L 1.707031 0 L 0.503906 0 L 0.503906 -3.890625 L 1.707031 -3.890625 L 1.707031 -3.273438 L 1.71875 -3.273438 C 2.007812 -3.746094 2.421875 -3.984375 2.96875 -3.984375 C 3.832031 -3.984375 4.261719 -3.449219 4.261719 -2.382812 Z "/>
</g>
</g>
</defs>
<g fill="rgb(90.980392%, 36.078431%, 36.078431%)" fill-opacity="1">
<use xlink:href="#glyph-0-0" x="30" y="28.392578"/>
<use xlink:href="#glyph-0-1" x="34" y="28.392578"/>
<use xlink:href="#glyph-0-2" x="38" y="28.392578"/>
<use xlink:href="#glyph-0-3" x="42" y="28.392578"/>
<use xlink:href="#glyph-0-4" x="45" y="28.392578"/>
<use xlink:href="#glyph-0-1" x="50" y="28.392578"/>
<use xlink:href="#glyph-0-3" x="54" y="28.392578"/>
</g>
</svg>
